<svg width="33" height="33" viewBox="0 0 33 33" fill="none" xmlns="http://www.w3.org/2000/svg">
<path d="M25.686 8.89535C24.814 8.89535 24.093 8.18605 24.093 7.30233C24.093 6.41861 24.8023 5.72093 25.686 5.72093C26.5698 5.72093 27.2791 6.43023 27.2791 7.30233C27.2791 8.17442 26.5698 8.89535 25.686 8.89535Z" fill="white"/>
<path d="M16.5 24.5116C12.0814 24.5116 8.48837 20.9186 8.48837 16.5C8.48837 12.0814 12.0814 8.48837 16.5 8.48837C20.9186 8.48837 24.5116 12.0814 24.5116 16.5C24.5116 20.9186 20.9186 24.5116 16.5 24.5116ZM16.5 10.3837C13.1279 10.3837 10.3837 13.1279 10.3837 16.5C10.3837 19.8721 13.1279 22.6163 16.5 22.6163C19.8721 22.6163 22.6163 19.8721 22.6163 16.5C22.6163 13.1279 19.8721 10.3837 16.5 10.3837Z" fill="white"/>
<path d="M9.59302 32.9884C4.30233 32.9884 0 28.686 0 23.3953V9.5814C0 4.30233 4.30233 0 9.59302 0H23.407C28.6977 0 33 4.30233 33 9.59302V23.407C33 28.6977 28.6977 33 23.407 33H9.59302V32.9884ZM9.59302 1.89535C5.34884 1.89535 1.90698 5.34884 1.90698 9.59302V23.407C1.90698 27.6512 5.36046 31.093 9.59302 31.093H23.407C27.6512 31.093 31.093 27.6395 31.093 23.407V9.59302C31.093 5.34884 27.6395 1.89535 23.3953 1.89535H9.5814H9.59302Z" fill="white"/>
</svg>
